<?xml version="1.0" encoding="UTF-8"?>
<svg version="1.1" xmlns="http://www.w3.org/2000/svg" width="512" height="512">
<path d="M0 0 C1.01790619 0.00215515 2.03581238 0.0043103 3.08456421 0.00653076 C17.69363523 0.05620146 32.02575853 0.30709809 46.375 3.3125 C47.34985352 3.51117676 48.32470703 3.70985352 49.32910156 3.91455078 C97.7109774 14.03517194 141.69928269 35.9516877 177.375 70.3125 C178.3640332 71.26068604 178.3640332 71.26068604 179.37304688 72.22802734 C188.86130305 81.37247479 197.6012044 90.66984009 205.375 101.3125 C206.23306152 102.46355017 207.09113451 103.61459177 207.94921875 104.765625 C213.98736829 112.95680614 219.34595521 121.47054105 224.375 130.3125 C224.73948242 130.94430176 225.10396484 131.57610352 225.47949219 132.22705078 C247.08534998 169.97532572 256.85198095 212.74189997 256.6875 255.9375 C256.68534485 256.95540619 256.6831897 257.97331238 256.68096924 259.02206421 C256.63129854 273.63113523 256.38040191 287.96325853 253.375 302.3125 C253.07698486 303.77478027 253.07698486 303.77478027 252.77294922 305.26660156 C242.65232806 353.6484774 220.7358123 397.63678269 186.375 433.3125 C185.74287598 433.97185547 185.11075195 434.63121094 184.45947266 435.31054688 C175.31502521 444.79880305 166.01765991 453.5387044 155.375 461.3125 C154.22394983 462.17056152 153.07290823 463.02863451 151.921875 463.88671875 C143.73224019 469.92427396 135.22961724 475.30707302 126.375 480.3125 C125.66778809 480.7146875 124.96057617 481.116875 124.23193359 481.53125 C101.09654164 494.5566741 75.92537591 503.30551461 49.9375 508.625 C49.21860596 508.77235596 48.49971191 508.91971191 47.7590332 509.0715332 C33.08339502 511.86090125 18.55831162 512.66142619 3.64770508 512.62817383 C0.70811513 512.6250221 -2.2304558 512.64854926 -5.16992188 512.67382812 C-18.54306192 512.71848737 -31.43916711 511.51301542 -44.625 509.3125 C-46.33055054 509.03031616 -46.33055054 509.03031616 -48.07055664 508.74243164 C-91.33802759 500.97044532 -132.38793216 480.98345309 -165.625 452.3125 C-166.37007813 451.67828125 -167.11515625 451.0440625 -167.8828125 450.390625 C-181.38779833 438.57948485 -194.05918743 425.82889772 -204.625 411.3125 C-205.48149066 410.16255169 -206.33826433 409.01281411 -207.1953125 407.86328125 C-213.23534209 399.67315742 -218.61867614 391.16870382 -223.625 382.3125 C-224.0271875 381.60528809 -224.429375 380.89807617 -224.84375 380.16943359 C-237.8691741 357.03404164 -246.61801461 331.86287591 -251.9375 305.875 C-252.08485596 305.15610596 -252.23221191 304.43721191 -252.3840332 303.6965332 C-255.35789088 288.05024391 -255.99800362 272.57681954 -255.9375 256.6875 C-255.93534485 255.66959381 -255.9331897 254.65168762 -255.93096924 253.60293579 C-255.88129854 238.99386477 -255.63040191 224.66174147 -252.625 210.3125 C-252.42632324 209.33764648 -252.22764648 208.36279297 -252.02294922 207.35839844 C-241.90232806 158.9765226 -219.9858123 114.98821731 -185.625 79.3125 C-184.99287598 78.65314453 -184.36075195 77.99378906 -183.70947266 77.31445312 C-174.56502521 67.82619695 -165.26765991 59.0862956 -154.625 51.3125 C-153.47394983 50.45443848 -152.32290823 49.59636549 -151.171875 48.73828125 C-142.98224019 42.70072604 -134.47961724 37.31792698 -125.625 32.3125 C-124.91778809 31.9103125 -124.21057617 31.508125 -123.48193359 31.09375 C-100.34654164 18.0683259 -75.17537591 9.31948539 -49.1875 4 C-48.46860596 3.85264404 -47.74971191 3.70528809 -47.0090332 3.5534668 C-31.36274391 0.57960912 -15.88931954 -0.06050362 0 0 Z " fill="#00A1F5" transform="translate(255.625,-0.3125)"/>
<path d="M0 0 C0.81298553 0.00087616 1.62597107 0.00175232 2.46359253 0.00265503 C14.96457481 0.04701578 26.78618669 0.68204503 38.8125 4.375 C39.63411621 4.62169434 40.45573242 4.86838867 41.30224609 5.12255859 C53.04434096 8.7363641 64.06635886 13.43895747 74.8125 19.375 C75.45026367 19.72288574 76.08802734 20.07077148 76.74511719 20.42919922 C86.40195273 25.75483921 94.58550455 32.06703634 102.8125 39.375 C103.86592749 40.24659548 104.92189954 41.11512524 105.98046875 41.98046875 C109.70753704 45.13176925 112.67226002 48.65531097 115.8125 52.375 C116.5653125 53.21675781 117.318125 54.05851562 118.09375 54.92578125 C142.14137765 82.43596288 153.96270552 117.38106338 154.05273438 153.57641602 C154.06238103 155.90873716 154.09346831 158.24015221 154.125 160.57226562 C154.23220136 175.45320948 152.01334991 189.32890684 147.125 203.4375 C146.77687256 204.4577124 146.42874512 205.4779248 146.07006836 206.52905273 C143.01858502 215.23061788 139.33131657 223.34866008 134.8125 231.375 C134.46606445 232.00696289 134.11962891 232.63892578 133.76269531 233.29003906 C129.06905232 241.80558714 123.74579561 249.2970599 117.29296875 256.5703125 C115.71922303 258.34976042 114.18797266 260.16847597 112.71875 262.03515625 C110.96997628 264.18170432 109.23406333 265.90562889 107.125 267.6875 C104.98367975 269.50723003 102.86687165 271.32382668 100.8203125 273.25 C73.61800374 298.70725499 36.41607176 310.83080558 -0.25 310.8125 C-1.42042847 310.81310425 -1.42042847 310.81310425 -2.61450195 310.8137207 C-16.51023424 310.77126193 -30.10390094 309.71752779 -43.5 305.75 C-44.38244385 305.49202637 -45.2648877 305.23405273 -46.17407227 304.96826172 C-68.71509199 298.12051041 -88.74231601 286.33779345 -106.01953125 270.3515625 C-108.27843245 268.23946966 -108.27843245 268.23946966 -111.25 266 C-115.80627582 261.92843437 -119.42557756 257.17426318 -123.1875 252.375 C-123.92226562 251.4675 -124.65703125 250.56 -125.4140625 249.625 C-136.86771924 235.05497729 -144.20432937 218.81709228 -150.1875 201.375 C-150.81978516 199.57675781 -150.81978516 199.57675781 -151.46484375 197.7421875 C-163.61502459 159.6869041 -157.09081179 117.42500707 -139.19482422 82.43408203 C-119.88360988 45.6301982 -86.11519024 18.37120819 -46.6484375 5.90625 C-45.12187975 5.45126774 -43.59325974 5.00313824 -42.0625 4.5625 C-41.39541016 4.36744873 -40.72832031 4.17239746 -40.04101562 3.97143555 C-26.91591402 0.42584387 -13.50311986 -0.03575498 0 0 Z " fill="#FCFEFE" transform="translate(257.1875,100.625)"/>
<path d="M0 0 C31.68 0 63.36 0 96 0 C97.12528877 11.25288767 97.12528877 11.25288767 97.12939453 15.23095703 C97.13254669 16.12533478 97.13569885 17.01971252 97.13894653 17.94119263 C97.13591019 19.33541946 97.13591019 19.33541946 97.1328125 20.7578125 C97.13376923 21.7457077 97.13472595 22.73360291 97.13571167 23.75143433 C97.13638741 25.82371078 97.1345758 27.89598942 97.13037109 29.96826172 C97.12500269 33.12342102 97.13034272 36.27843874 97.13671875 39.43359375 C97.13605808 41.45833364 97.13477716 43.48307345 97.1328125 45.5078125 C97.13483673 46.44134552 97.13686096 47.37487854 97.13894653 48.33670044 C97.13421829 49.66881058 97.13421829 49.66881058 97.12939453 51.02783203 C97.12859894 51.79709015 97.12780334 52.56634827 97.12698364 53.35891724 C96.95568613 56.92166663 96.44241516 60.46067875 96 64 C64.32 64 32.64 64 0 64 C-0.59373521 56.28144222 -1.15233168 48.8116554 -1.1328125 41.11328125 C-1.13376923 40.24535446 -1.13472595 39.37742767 -1.13571167 38.48320007 C-1.13638408 36.67263719 -1.13459643 34.86207175 -1.13037109 33.05151367 C-1.12498936 30.30707326 -1.13035853 27.56279498 -1.13671875 24.81835938 C-1.13605818 23.04166631 -1.13477747 21.26497335 -1.1328125 19.48828125 C-1.13483673 18.68385086 -1.13686096 17.87942047 -1.13894653 17.0506134 C-1.11545486 11.25150951 -0.58353261 5.83532614 0 0 Z " fill="#00A1F5" transform="translate(208,224)"/>
<path d="M0 0 C3.4229572 1.53384573 6.13998303 3.59156466 9 6 C9.67933594 6.556875 10.35867188 7.11375 11.05859375 7.6875 C17.37011232 13.39616397 21.09242358 20.5722362 25 28 C25.474375 28.86882812 25.94875 29.73765625 26.4375 30.6328125 C31.73003022 40.6555416 34.78037738 50.90188692 37 62 C9.28 62 -18.44 62 -47 62 C-41.22931962 38.91727847 -33.80449336 16.73822762 -14 2 C-9.43188301 -0.66473491 -5.16889692 -0.85260155 0 0 Z " fill="#01A1F5" transform="translate(261,131)"/>
<path d="M0 0 C27.72 0 55.44 0 84 0 C77.81768575 23.18367844 70.16649765 47.24431447 49 61 C45.21145306 62.89427347 41.11735059 62.60844636 37 62 C33.57296794 60.47499887 30.85977499 58.40823157 28 56 C27.32066406 55.443125 26.64132813 54.88625 25.94140625 54.3125 C11.68561771 41.41837548 3.69004785 18.45023924 0 0 Z " fill="#00A1F5" transform="translate(214,319)"/>
<path d="M0 0 C14.19 0 28.38 0 43 0 C45.54178674 10.16714698 47.19591836 18.57661998 47.1875 28.8125 C47.18669434 29.82626709 47.18588867 30.84003418 47.18505859 31.88452148 C47.09692566 42.85534324 46.48930207 53.53209378 43 64 C28.81 64 14.62 64 0 64 C0.33 59.05 0.66 54.1 1 49 C1.08852288 44.2640261 1.14068651 39.54721217 1.125 34.8125 C1.12886719 33.66458984 1.13273437 32.51667969 1.13671875 31.33398438 C1.1252164 20.83808594 0.52609976 10.52199527 0 0 Z " fill="#01A1F5" transform="translate(334,224)"/>
<path d="M0 0 C14.19 0 28.38 0 43 0 C42.67 4.29 42.34 8.58 42 13 C41.91868589 15.78692592 41.8696133 18.57517039 41.8671875 21.36328125 C41.86623077 22.08380173 41.86527405 22.8043222 41.86428833 23.54667664 C41.86361744 25.04959197 41.86539398 26.55251041 41.86962891 28.05541992 C41.87496879 30.29938589 41.86965823 32.54314958 41.86328125 34.78710938 C41.86394268 36.27083376 41.86522519 37.75455802 41.8671875 39.23828125 C41.86887939 41.187948 41.86887939 41.187948 41.87060547 43.17700195 C42.05702974 50.12570282 42.56639598 57.06233575 43 64 C28.81 64 14.62 64 0 64 C-6.51297968 44.46106096 -6.52264155 19.56792465 0 0 Z " fill="#00A1F5" transform="translate(135,224)"/>
<path d="M0 0 C11.55 0 23.1 0 35 0 C36.0209375 3.83625 36.0209375 3.83625 37.0625 7.75 C38.9907391 14.79357449 41.1648952 21.72726543 43.5625 28.625 C43.84295166 29.4406543 44.12340332 30.25630859 44.41235352 31.09667969 C45.80010843 35.02120387 47.3174753 38.75301376 49.21484375 42.4609375 C51 46 51 46 51 48 C29.43134933 40.02308431 11.76537901 20.08872716 0 1 C0 0.67 0 0.34 0 0 Z " fill="#04A2F5" transform="translate(148,319)"/>
<path d="M0 0 C11.55 0 23.1 0 35 0 C30.33725842 8.39293485 25.35160734 14.99583026 19 22 C18.53174805 22.52029785 18.06349609 23.0405957 17.58105469 23.57666016 C9.71193704 32.20527104 0.83989606 38.75917577 -9 45 C-9.93972656 45.59683594 -10.87945312 46.19367188 -11.84765625 46.80859375 C-14 48 -14 48 -16 48 C-14.5601404 43.52272228 -12.89903287 39.16535717 -11.125 34.8125 C-6.48792802 23.26768297 -3.05899435 12.2359774 0 0 Z " fill="#04A2F5" transform="translate(329,319)"/>
<path d="M0 0 C-0.37898438 0.94552734 -0.37898438 0.94552734 -0.765625 1.91015625 C-1.17296875 2.92980469 -1.5803125 3.94945312 -2 5 C-2.40508789 6.00329346 -2.40508789 6.00329346 -2.81835938 7.02685547 C-8.22731014 20.50021737 -12.37081103 33.93689274 -16 48 C-27.55 48 -39.1 48 -51 48 C-40.4079858 28.93437445 -25.38349648 14.53044545 -7 3 C-6.06285156 2.40574219 -5.12570313 1.81148437 -4.16015625 1.19921875 C-2 0 -2 0 0 0 Z " fill="#03A2F5" transform="translate(199,145)"/>
<path d="M0 0 C20.79690852 7.69149579 38.09728622 26.87334809 50 45 C50.33 45.99 50.66 46.98 51 48 C39.45 48 27.9 48 16 48 C15.13375 44.7 14.2675 41.4 13.375 38 C10.00618071 25.47475963 5.99565225 13.53010049 0 2 C0 1.34 0 0.68 0 0 Z " fill="#03A2F5" transform="translate(313,145)"/>
</svg>
